<?xml version="1.0" encoding="UTF-8" standalone="no"?>
<!-- Created with Inkscape (http://www.inkscape.org/) -->

<svg
   width="125.24328mm"
   height="125.19198mm"
   viewBox="0 0 125.24328 125.19198"
   version="1.1"
   id="svg5"
   inkscape:version="1.1.1 (c3084ef, 2021-09-22)"
   sodipodi:docname="goodreads.svg"
   xmlns:inkscape="http://www.inkscape.org/namespaces/inkscape"
   xmlns:sodipodi="http://sodipodi.sourceforge.net/DTD/sodipodi-0.dtd"
   xmlns="http://www.w3.org/2000/svg"
   xmlns:svg="http://www.w3.org/2000/svg">
  <sodipodi:namedview
     id="namedview7"
     pagecolor="#ffffff"
     bordercolor="#111111"
     borderopacity="1"
     inkscape:pageshadow="0"
     inkscape:pageopacity="0"
     inkscape:pagecheckerboard="1"
     inkscape:document-units="mm"
     showgrid="false"
     fit-margin-top="0"
     fit-margin-left="0"
     fit-margin-right="0"
     fit-margin-bottom="0"
     inkscape:zoom="0.30912598"
     inkscape:cx="-46.906442"
     inkscape:cy="346.13719"
     inkscape:window-width="1399"
     inkscape:window-height="916"
     inkscape:window-x="0"
     inkscape:window-y="38"
     inkscape:window-maximized="0"
     inkscape:current-layer="g495" />
  <defs
     id="defs2" />
  <g
     inkscape:label="Capa 1"
     inkscape:groupmode="layer"
     id="layer1"
     transform="translate(-38.890861,-34.284233)">
    <g
       id="g495">
      <path
         style="fill:#e9e5d1;stroke-width:0.264583"
         d="m 95.666402,159.17905 c -8.03133,-0.85827 -14.35841,-2.69047 -21.60964,-6.25771 -12.47319,-6.1362 -22.65383,-16.34876 -28.81458,-28.90496 -7.68855,-15.66998 -8.42411,-33.381501 -2.05671,-49.523801 8.20985,-20.813186 26.49804,-35.718251 48.36319,-39.416506 8.19755,-1.386526 17.986058,-0.931145 25.813578,1.2009 7.85633,2.139894 16.72854,6.62056 22.83263,11.530999 13.16858,10.593463 21.50723,25.48144 23.61506,42.162737 0.48562,3.84314 0.41478,11.716791 -0.13926,15.478121 -2.87312,19.50565 -14.85203,36.66104 -32.40211,46.40416 -10.48721,5.82209 -23.88246,8.5785 -35.602158,7.32606 z m 11.112498,-21.8804 c 2.86318,-0.37945 5.52716,-1.14791 7.76625,-2.24026 6.58548,-3.21277 9.92041,-8.95527 11.00495,-18.94965 0.29716,-2.7384 0.40121,-52.509496 0.11204,-53.588552 -0.15498,-0.5783 -0.25695,-0.595312 -3.56826,-0.595312 h -3.40873 v 3.560524 3.560524 l -2.18281,-2.204283 c -4.53919,-4.583837 -9.19273,-6.504265 -15.76102,-6.504265 -4.966308,0 -9.525318,1.413089 -13.726028,4.254452 -1.78868,1.209866 -5.07556,4.647446 -6.12072,6.40135 -4.31681,7.244131 -5.68485,17.385411 -3.49846,25.934101 0.71521,2.79645 2.16342,6.524051 3.21104,8.265031 2.79863,4.65089 8.06564,8.30582 14.16951,9.83261 1.3204,0.33029 2.89853,0.45253 5.784528,0.44809 3.42162,-0.005 4.31759,-0.1001 6.49911,-0.68791 4.0335,-1.08682 7.63496,-3.09356 10.50037,-5.85085 l 1.12448,-1.08205 v 1.06053 c 0,2.40493 -0.59172,8.34379 -1.06522,10.69111 -0.70977,3.51866 -1.93029,5.87413 -4.0912,7.89554 -3.06307,2.86535 -7.02212,4.3011 -11.83778,4.29295 -6.583888,-0.0111 -12.070548,-3.17545 -15.411498,-8.88823 l -1.00155,-1.71256 h -3.40471 c -3.94184,0 -3.71458,-0.23792 -2.88204,3.01731 1.35897,5.3135 5.12506,9.18935 11.23411,11.5615 4.91013,1.90661 10.090368,2.38487 16.553638,1.5283 z m -9.153318,-28.14171 c -7.9347,-1.72634 -12.91085,-8.25024 -13.8421,-18.147491 -0.42545,-4.52163 0.38005,-10.23658 1.98181,-14.06071 1.49986,-3.580862 4.15698,-6.731761 7.11897,-8.441922 2.53117,-1.461423 5.20298,-2.126281 8.735258,-2.173697 3.43018,-0.04605 4.6049,0.217003 7.5553,1.69182 6.34099,3.169676 10.0395,10.620829 10.0395,20.225979 0,9.28098 -3.61601,16.424431 -9.8234,19.406171 -3.68191,1.76862 -7.99992,2.31908 -11.765338,1.49985 z"
         id="path507" />
      <path
         style="fill:#37200f;stroke-width:0.264583"
         d="m 96.363622,137.20838 c -9.8167,-1.52495 -16.59845,-7.21008 -17.48001,-14.65344 l -0.16171,-1.3654 3.278,0.001 3.278,0.001 0.91986,1.77877 c 0.59801,1.15642 1.63145,2.49037 2.95369,3.81261 5.46323,5.46323 13.633878,6.7912 20.784358,3.37807 4.81504,-2.29836 7.41547,-6.16084 8.26671,-12.2787 0.3523,-2.532 0.86191,-9.95792 0.69484,-10.12499 -0.0745,-0.0745 -0.89869,0.57854 -1.83155,1.45118 -7.69638,7.19958 -20.797638,8.25615 -29.847278,2.40708 -3.87807,-2.50651 -6.52835,-5.9048 -8.27077,-10.60508 -3.05777,-8.248511 -3.18573,-16.048171 -0.39972,-24.363861 2.13886,-6.384067 5.91941,-10.782069 11.75119,-13.670435 3.85082,-1.907239 6.09901,-2.437829 10.456788,-2.467891 4.03154,-0.02781 5.98881,0.358873 9.16038,1.809763 2.8012,1.28146 4.8178,2.76084 7.07421,5.189638 l 2.02167,2.175973 v -3.748044 -3.748164 h 3.30729 3.30729 l -0.005,26.39219 c -0.005,27.701831 -0.051,28.972301 -1.21451,33.611691 -1.48895,5.93702 -4.81364,10.23958 -9.76085,12.63176 -2.75694,1.33309 -4.68212,1.86893 -8.57874,2.38771 -3.36904,0.44855 -6.806748,0.44769 -9.704298,-0.002 z m 9.419488,-27.96977 c 0.65484,-0.15239 2.28913,-0.80127 3.63174,-1.44196 4.65601,-2.22181 7.60667,-6.18016 9.24624,-12.403981 0.60807,-2.30823 0.69917,-3.18601 0.71399,-6.87917 0.0187,-4.67566 -0.36773,-7.13143 -1.69725,-10.78455 -2.33833,-6.424999 -7.52398,-10.781141 -13.74565,-11.546861 -2.04251,-0.251375 -5.694838,0.07311 -7.541778,0.670044 -7.87331,2.544654 -12.30177,9.566137 -12.74406,20.206157 -0.50226,12.08249 5.0283,20.566321 14.59249,22.384771 1.972568,0.37505 5.460258,0.28053 7.544278,-0.20445 z"
         id="path497" />
    </g>
  </g>
</svg>
